<svg width="19" height="21" viewBox="0 0 19 21" fill="none" xmlns="http://www.w3.org/2000/svg">
<path fill-rule="evenodd" clip-rule="evenodd" d="M11.33 0.22L18.33 7.22C18.4535 7.36781 18.5145 7.55794 18.5 7.75V13.11C18.5003 15.7007 16.4205 17.8117 13.83 17.85C13.1677 19.4836 11.5925 20.5626 9.83 20.59H4.38C1.96489 20.59 0.00551394 18.6351 0 16.22V7.14C0.00549883 4.72327 1.96327 2.7655 4.38 2.76H4.81C5.57931 1.08662 7.24829 0.0103668 9.09 0H10.8C10.9988 0.000175052 11.1895 0.0793075 11.33 0.22ZM15.96 6.93L11.69 2.66V5.76C11.6954 6.40391 12.2161 6.92457 12.86 6.93H15.96ZM9.83 19.09H4.38C2.79332 19.09 1.50551 17.8067 1.5 16.22V7.14C1.5 5.54942 2.78942 4.26 4.38 4.26V4.78V13.11C4.38 15.7334 6.50665 17.86 9.13 17.86H12.23C11.6832 18.6424 10.7844 19.103 9.83 19.09ZM9.09 16.36H13.79C15.5849 16.36 17.04 14.9049 17.04 13.11V8.58H12.81C11.2548 8.57451 9.99549 7.31517 9.99 5.76V1.5H9.09C8.22365 1.50264 7.39399 1.85002 6.7842 2.46543C6.17442 3.08084 5.83468 3.91366 5.84 4.78V13.11C5.84549 14.9026 7.29735 16.3545 9.09 16.36Z" fill="white"/>
</svg>
